PathFileType	4	(X/Y/Z)	C:\Users\italobelli\Desktop\GitHub\PTbot_officialCBL\Personal_Results\ABD21_noisy1.trc
DataRate	CameraRate	NumFrames	NumMarkers	Units	OrigDataRate	OrigDataStartFrame	OrigNumFrames
106.533333	106.533333	38	9	m	106.533333	301	800
Frame#	Time		gu		centelbow		EpL		centpxt8		centijc7		ij		ts		aa		ai
			X1	Y1	Z1	X2	Y2	Z2	X3	Y3	Z3	X4	Y4	Z4	X5	Y5	Z5	X6	Y6	Z6	X7	Y7	Z7	X8	Y8	Z8	X9	Y9	Z9

301	2.816	-0.10747	0.065831	0.10338	-0.059344	0.25874	0.2586	-0.077486	0.27436	0.23748	-0.046816	-0.15316	-0.008669	-0.046816	0.031938	-0.008669	0	0	0	-0.13685	-0.017721	0.041461	-0.14865	0.082379	0.10469	-0.13896	-0.074014	0.14004
302	2.8254	-0.10776	0.065914	0.10317	-0.058655	0.26007	0.25677	-0.076847	0.27554	0.23557	-0.046816	-0.15316	-0.008669	-0.046816	0.031938	-0.008669	0	0	0	-0.13691	-0.01786	0.041673	-0.14895	0.082561	0.10437	-0.13902	-0.073638	0.14054
303	2.8348	-0.10806	0.065995	0.10296	-0.057968	0.26135	0.25496	-0.07621	0.27667	0.23369	-0.046816	-0.15316	-0.008669	-0.046816	0.031938	-0.008669	0	0	0	-0.13697	-0.017995	0.041882	-0.14924	0.082738	0.10406	-0.13909	-0.073267	0.14102
304	2.8442	-0.10834	0.066073	0.10275	-0.057286	0.26258	0.25317	-0.075577	0.27775	0.23183	-0.046816	-0.15316	-0.008669	-0.046816	0.031938	-0.008669	0	0	0	-0.13703	-0.018126	0.042088	-0.14953	0.082911	0.10375	-0.13915	-0.072902	0.1415
305	2.8536	-0.10862	0.066148	0.10255	-0.056608	0.26374	0.25141	-0.074947	0.27877	0.23001	-0.046816	-0.15316	-0.008669	-0.046816	0.031938	-0.008669	0	0	0	-0.13708	-0.018252	0.04229	-0.1498	0.08308	0.10346	-0.13921	-0.072544	0.14196
306	2.863	-0.10889	0.06622	0.10236	-0.055936	0.26485	0.24969	-0.074323	0.27974	0.22821	-0.046816	-0.15316	-0.008669	-0.046816	0.031938	-0.008669	0	0	0	-0.13714	-0.018374	0.04249	-0.15007	0.083243	0.10317	-0.13926	-0.072193	0.14241
307	2.8723	-0.10915	0.06629	0.10217	-0.055269	0.2659	0.24799	-0.073704	0.28066	0.22646	-0.046816	-0.15316	-0.008669	-0.046816	0.031938	-0.008669	0	0	0	-0.1372	-0.018492	0.042685	-0.15033	0.083401	0.1029	-0.13931	-0.07185	0.14285
308	2.8817	-0.10941	0.066356	0.10199	-0.054609	0.26689	0.24633	-0.073091	0.28152	0.22474	-0.046816	-0.15316	-0.008669	-0.046816	0.031938	-0.008669	0	0	0	-0.13726	-0.018605	0.042876	-0.15058	0.083555	0.10263	-0.13936	-0.071516	0.14328
309	2.8911	-0.10966	0.066419	0.10182	-0.053957	0.26782	0.24471	-0.072485	0.28233	0.22305	-0.046816	-0.15316	-0.008669	-0.046816	0.031938	-0.008669	0	0	0	-0.13731	-0.018714	0.043063	-0.15081	0.083703	0.10238	-0.13941	-0.07119	0.14369
310	2.9005	-0.10989	0.066479	0.10165	-0.053312	0.26868	0.24312	-0.071887	0.28308	0.22141	-0.046816	-0.15316	-0.008669	-0.046816	0.031938	-0.008669	0	0	0	-0.13737	-0.018817	0.043246	-0.15104	0.083845	0.10213	-0.13945	-0.070875	0.14409
311	2.9099	-0.11012	0.066536	0.10149	-0.052677	0.26947	0.24158	-0.071297	0.28377	0.21981	-0.046816	-0.15316	-0.008669	-0.046816	0.031938	-0.008669	0	0	0	-0.13743	-0.018916	0.043423	-0.15125	0.083982	0.1019	-0.13949	-0.07057	0.14447
312	2.9193	-0.11034	0.066589	0.10134	-0.052051	0.2702	0.24008	-0.070716	0.2844	0.21826	-0.046816	-0.15316	-0.008669	-0.046816	0.031938	-0.008669	0	0	0	-0.13749	-0.01901	0.043596	-0.15145	0.084113	0.10167	-0.13952	-0.070275	0.14484
313	2.9287	-0.11054	0.066638	0.10119	-0.051435	0.27086	0.23862	-0.070144	0.28497	0.21676	-0.046816	-0.15316	-0.008669	-0.046816	0.031938	-0.008669	0	0	0	-0.13755	-0.019098	0.043763	-0.15164	0.084238	0.10146	-0.13955	-0.069992	0.1452
314	2.938	-0.11074	0.066685	0.10105	-0.05083	0.27146	0.23721	-0.069582	0.28548	0.2153	-0.046816	-0.15316	-0.008669	-0.046816	0.031938	-0.008669	0	0	0	-0.13761	-0.019182	0.043924	-0.15181	0.084357	0.10127	-0.13958	-0.069721	0.14553
315	2.9474	-0.11092	0.066727	0.10092	-0.050236	0.27198	0.23585	-0.069032	0.28592	0.21389	-0.046816	-0.15316	-0.008669	-0.046816	0.031938	-0.008669	0	0	0	-0.13767	-0.01926	0.044079	-0.15198	0.084469	0.10108	-0.1396	-0.069463	0.14586
316	2.9568	-0.11109	0.066766	0.1008	-0.049655	0.27243	0.23454	-0.068493	0.2863	0.21254	-0.046816	-0.15316	-0.008669	-0.046816	0.031938	-0.008669	0	0	0	-0.13773	-0.019333	0.044227	-0.15212	0.084575	0.10091	-0.13962	-0.069218	0.14616
317	2.9662	-0.11125	0.066801	0.10068	-0.049086	0.2728	0.23328	-0.067966	0.28661	0.21124	-0.046816	-0.15316	-0.008669	-0.046816	0.031938	-0.008669	0	0	0	-0.13779	-0.0194	0.04437	-0.15225	0.084674	0.10075	-0.13963	-0.068986	0.14645
318	2.9756	-0.11139	0.066832	0.10057	-0.048532	0.2731	0.23208	-0.067452	0.28686	0.21001	-0.046816	-0.15316	-0.008669	-0.046816	0.031938	-0.008669	0	0	0	-0.13786	-0.019461	0.044505	-0.15237	0.084766	0.10061	-0.13964	-0.068769	0.14673
319	2.985	-0.11152	0.066859	0.10047	-0.047992	0.27333	0.23094	-0.066952	0.28703	0.20883	-0.046816	-0.15316	-0.008669	-0.046816	0.031938	-0.008669	0	0	0	-0.13792	-0.019517	0.044633	-0.15247	0.084852	0.10048	-0.13964	-0.068567	0.14698
320	2.9944	-0.11164	0.066882	0.10038	-0.047467	0.27347	0.22986	-0.066466	0.28714	0.20771	-0.046816	-0.15316	-0.008669	-0.046816	0.031938	-0.008669	0	0	0	-0.13798	-0.019567	0.044753	-0.15255	0.08493	0.10036	-0.13964	-0.068381	0.14722
321	3.0038	-0.11174	0.066901	0.1003	-0.046956	0.27354	0.22884	-0.065994	0.28718	0.20665	-0.046816	-0.15316	-0.008669	-0.046816	0.031938	-0.008669	0	0	0	-0.13805	-0.019611	0.044867	-0.15262	0.085001	0.10026	-0.13964	-0.06821	0.14744
322	3.0131	-0.11184	0.066918	0.10021	-0.046445	0.2736	0.22783	-0.065522	0.28721	0.20562	-0.046816	-0.15316	-0.008669	-0.046816	0.031938	-0.008669	0	0	0	-0.13811	-0.019654	0.044977	-0.15268	0.08507	0.10017	-0.13963	-0.068043	0.14765
323	3.0225	-0.11193	0.066934	0.10013	-0.045931	0.27365	0.22684	-0.065046	0.28724	0.2046	-0.046816	-0.15316	-0.008669	-0.046816	0.031938	-0.008669	0	0	0	-0.13818	-0.019697	0.045086	-0.15273	0.085138	0.10007	-0.13963	-0.067879	0.14786
324	3.0319	-0.11203	0.066948	0.10005	-0.045414	0.2737	0.22586	-0.064569	0.28726	0.2036	-0.046816	-0.15316	-0.008669	-0.046816	0.031938	-0.008669	0	0	0	-0.13826	-0.019739	0.045194	-0.15278	0.085204	0.099982	-0.13962	-0.067717	0.14806
325	3.0413	-0.11212	0.06696	0.099973	-0.044896	0.27375	0.22489	-0.064089	0.28728	0.20261	-0.046816	-0.15316	-0.008669	-0.046816	0.031938	-0.008669	0	0	0	-0.13834	-0.019781	0.045299	-0.15283	0.08527	0.099894	-0.13961	-0.067558	0.14826
326	3.0507	-0.1122	0.066971	0.099894	-0.044376	0.2738	0.22394	-0.063608	0.2873	0.20165	-0.046816	-0.15316	-0.008669	-0.046816	0.031938	-0.008669	0	0	0	-0.13842	-0.019822	0.045403	-0.15288	0.085335	0.099808	-0.1396	-0.067401	0.14846
327	3.0601	-0.11229	0.066981	0.099815	-0.043856	0.27384	0.22299	-0.063127	0.28732	0.20069	-0.046816	-0.15316	-0.008669	-0.046816	0.031938	-0.008669	0	0	0	-0.13851	-0.019863	0.045505	-0.15293	0.085398	0.099724	-0.1396	-0.067247	0.14865
328	3.0695	-0.11237	0.06699	0.099737	-0.043335	0.27388	0.22207	-0.062645	0.28734	0.19976	-0.046816	-0.15316	-0.008669	-0.046816	0.031938	-0.008669	0	0	0	-0.13859	-0.019903	0.045606	-0.15297	0.08546	0.099643	-0.13959	-0.067095	0.14884
329	3.0788	-0.11246	0.066997	0.09966	-0.042815	0.27392	0.22115	-0.062164	0.28736	0.19884	-0.046816	-0.15316	-0.008669	-0.046816	0.031938	-0.008669	0	0	0	-0.13868	-0.019943	0.045704	-0.153	0.085521	0.099564	-0.13958	-0.066946	0.14903
330	3.0882	-0.11254	0.067003	0.099584	-0.042296	0.27395	0.22025	-0.061683	0.28737	0.19794	-0.046816	-0.15316	-0.008669	-0.046816	0.031938	-0.008669	0	0	0	-0.13878	-0.019983	0.045801	-0.15304	0.08558	0.099487	-0.13957	-0.066799	0.14921
331	3.0976	-0.11261	0.067009	0.099508	-0.041779	0.27398	0.21937	-0.061204	0.28738	0.19706	-0.046816	-0.15316	-0.008669	-0.046816	0.031938	-0.008669	0	0	0	-0.13887	-0.020022	0.045896	-0.15307	0.085639	0.099412	-0.13956	-0.066655	0.14939
332	3.107	-0.11269	0.067013	0.099433	-0.041264	0.27401	0.2185	-0.060727	0.28739	0.19619	-0.046816	-0.15316	-0.008669	-0.046816	0.031938	-0.008669	0	0	0	-0.13897	-0.02006	0.04599	-0.1531	0.085696	0.099339	-0.13956	-0.066514	0.14957
333	3.1164	-0.11276	0.067017	0.099359	-0.040752	0.27404	0.21764	-0.060253	0.2874	0.19534	-0.046816	-0.15316	-0.008669	-0.046816	0.031938	-0.008669	0	0	0	-0.13907	-0.020098	0.046081	-0.15313	0.085752	0.099268	-0.13955	-0.066375	0.14974
334	3.1258	-0.11284	0.067019	0.099286	-0.040244	0.27406	0.2168	-0.059782	0.28741	0.19452	-0.046816	-0.15316	-0.008669	-0.046816	0.031938	-0.008669	0	0	0	-0.13917	-0.020136	0.04617	-0.15316	0.085806	0.0992	-0.13954	-0.06624	0.1499
335	3.1352	-0.11291	0.067021	0.099213	-0.03974	0.27408	0.21598	-0.059314	0.28741	0.19371	-0.046816	-0.15316	-0.008669	-0.046816	0.031938	-0.008669	0	0	0	-0.13928	-0.020173	0.046258	-0.15318	0.08586	0.099133	-0.13953	-0.066107	0.15007
336	3.1446	-0.11298	0.067022	0.099142	-0.03924	0.2741	0.21518	-0.058851	0.28741	0.19292	-0.046816	-0.15316	-0.008669	-0.046816	0.031938	-0.008669	0	0	0	-0.13938	-0.020209	0.046344	-0.1532	0.085911	0.099068	-0.13952	-0.065977	0.15023
337	3.1539	-0.11304	0.067023	0.099071	-0.038746	0.27412	0.21439	-0.058392	0.28741	0.19215	-0.046816	-0.15316	-0.008669	-0.046816	0.031938	-0.008669	0	0	0	-0.13949	-0.020245	0.046427	-0.15322	0.085962	0.099005	-0.13951	-0.065849	0.15038
338	3.1633	-0.11311	0.067023	0.099001	-0.038257	0.27413	0.21362	-0.057938	0.28741	0.19139	-0.046816	-0.15316	-0.008669	-0.046816	0.031938	-0.008669	0	0	0	-0.13959	-0.020281	0.046509	-0.15324	0.086011	0.098944	-0.1395	-0.065725	0.15053
